<?xml version="1.0" encoding="iso-8859-1"?>
<!-- Uploaded to: SVG Repo, www.svgrepo.com, Generator: SVG Repo Mixer Tools -->
<svg fill="#000000" height="800px" width="800px" version="1.1" id="Capa_1" xmlns="http://www.w3.org/2000/svg" xmlns:xlink="http://www.w3.org/1999/xlink" 
	 viewBox="0 0 358.942 358.942" xml:space="preserve">
<path id="XMLID_235_" d="M328.817,234.971h-65.199c17.929-14.128,39.008-35.75,41.831-60.865
	c2.57-22.866-14.645-43.627-37.655-43.652c-12.313-0.013-23.259,5.829-30.216,14.894c-6.944-9.049-17.864-14.886-30.15-14.894
	c-23.474-0.014-40.717,21.401-37.589,44.666c3.3,24.55,24.156,45.855,41.866,59.851H136V12.481c0-3.589-2.92-6.51-6.51-6.51
	c-35.202,0-69.384,14.548-93.783,39.914C11.392,71.164-1.254,104.24,0.098,139.018c1.285,33.055,15.123,63.966,38.963,87.039
	c18.496,17.9,41.495,29.577,66.317,33.961c-0.282,1.652-0.437,3.347-0.437,5.078v57.749c0,16.611,13.514,30.125,30.125,30.125
	h193.749c16.611,0,30.125-13.514,30.125-30.125v-57.749C358.942,248.485,345.428,234.971,328.817,234.971z"/>
</svg>